<mxfile host="app.diagrams.net" modified="2022-11-22T06:29:59.188Z" agent="5.0 (Windows NT 10.0; Win64; x64) AppleWebKit/537.36 (KHTML, like Gecko) Chrome/107.0.0.0 Safari/537.36" etag="Po9VV30Nc9JshkHhfktD" version="20.5.3" type="github">
  <diagram name="Page-1" id="f1b7ffb7-ca1e-a977-7cf5-a751b3c06c05">
    <mxGraphModel dx="1209" dy="692" grid="1" gridSize="10" guides="1" tooltips="1" connect="1" arrows="1" fold="1" page="1" pageScale="1" pageWidth="826" pageHeight="1169" background="none" math="0" shadow="0">
      <root>
        <mxCell id="0" />
        <mxCell id="1" parent="0" />
        <mxCell id="14" value="" style="verticalLabelPosition=bottom;verticalAlign=top;strokeWidth=1;shape=mxgraph.mockup.graphics.iconGrid;strokeColor=#CCCCCC;gridSize=1,1;" parent="1" vertex="1">
          <mxGeometry x="470" y="30" width="330" height="230" as="geometry" />
        </mxCell>
        <mxCell id="13" value="" style="verticalLabelPosition=bottom;verticalAlign=top;strokeWidth=1;shape=mxgraph.mockup.graphics.iconGrid;strokeColor=#CCCCCC;gridSize=1,1;" parent="1" vertex="1">
          <mxGeometry x="17.5" y="30" width="432.5" height="480" as="geometry" />
        </mxCell>
        <mxCell id="50" value="" style="verticalLabelPosition=bottom;verticalAlign=top;strokeWidth=1;shape=mxgraph.mockup.graphics.iconGrid;strokeColor=#CCCCCC;gridSize=1,1;" parent="1" vertex="1">
          <mxGeometry x="470" y="280" width="330" height="230" as="geometry" />
        </mxCell>
        <mxCell id="6ESlSrMBdeSqssrMb8Sr-62" value="" style="shape=table;html=1;whiteSpace=wrap;startSize=0;container=1;collapsible=0;childLayout=tableLayout;strokeWidth=2;" vertex="1" parent="1">
          <mxGeometry x="30" y="40" width="400" height="450" as="geometry" />
        </mxCell>
        <mxCell id="6ESlSrMBdeSqssrMb8Sr-63" value="" style="shape=tableRow;horizontal=0;startSize=0;swimlaneHead=0;swimlaneBody=0;top=0;left=0;bottom=0;right=0;collapsible=0;dropTarget=0;fillColor=none;points=[[0,0.5],[1,0.5]];portConstraint=eastwest;" vertex="1" parent="6ESlSrMBdeSqssrMb8Sr-62">
          <mxGeometry width="400" height="30" as="geometry" />
        </mxCell>
        <mxCell id="6ESlSrMBdeSqssrMb8Sr-64" value="Header 1" style="shape=partialRectangle;html=1;whiteSpace=wrap;connectable=0;fillColor=none;top=0;left=0;bottom=0;right=0;overflow=hidden;fontStyle=1" vertex="1" parent="6ESlSrMBdeSqssrMb8Sr-63">
          <mxGeometry width="200" height="30" as="geometry">
            <mxRectangle width="200" height="30" as="alternateBounds" />
          </mxGeometry>
        </mxCell>
        <mxCell id="6ESlSrMBdeSqssrMb8Sr-65" value="Header 2" style="shape=partialRectangle;html=1;whiteSpace=wrap;connectable=0;fillColor=none;top=0;left=0;bottom=0;right=0;overflow=hidden;fontStyle=1" vertex="1" parent="6ESlSrMBdeSqssrMb8Sr-63">
          <mxGeometry x="200" width="200" height="30" as="geometry">
            <mxRectangle width="200" height="30" as="alternateBounds" />
          </mxGeometry>
        </mxCell>
        <mxCell id="6ESlSrMBdeSqssrMb8Sr-66" value="" style="shape=tableRow;horizontal=0;startSize=0;swimlaneHead=0;swimlaneBody=0;top=0;left=0;bottom=0;right=0;collapsible=0;dropTarget=0;fillColor=none;points=[[0,0.5],[1,0.5]];portConstraint=eastwest;" vertex="1" parent="6ESlSrMBdeSqssrMb8Sr-62">
          <mxGeometry y="30" width="400" height="30" as="geometry" />
        </mxCell>
        <mxCell id="6ESlSrMBdeSqssrMb8Sr-67" value="строка в которой вроде есть товар" style="shape=partialRectangle;html=1;whiteSpace=wrap;connectable=0;fillColor=none;top=0;left=0;bottom=0;right=0;overflow=hidden;" vertex="1" parent="6ESlSrMBdeSqssrMb8Sr-66">
          <mxGeometry width="200" height="30" as="geometry">
            <mxRectangle width="200" height="30" as="alternateBounds" />
          </mxGeometry>
        </mxCell>
        <mxCell id="6ESlSrMBdeSqssrMb8Sr-68" value="стандартизированный товар" style="shape=partialRectangle;html=1;whiteSpace=wrap;connectable=0;fillColor=none;top=0;left=0;bottom=0;right=0;overflow=hidden;" vertex="1" parent="6ESlSrMBdeSqssrMb8Sr-66">
          <mxGeometry x="200" width="200" height="30" as="geometry">
            <mxRectangle width="200" height="30" as="alternateBounds" />
          </mxGeometry>
        </mxCell>
        <mxCell id="6ESlSrMBdeSqssrMb8Sr-69" value="" style="shape=tableRow;horizontal=0;startSize=0;swimlaneHead=0;swimlaneBody=0;top=0;left=0;bottom=0;right=0;collapsible=0;dropTarget=0;fillColor=none;points=[[0,0.5],[1,0.5]];portConstraint=eastwest;" vertex="1" parent="6ESlSrMBdeSqssrMb8Sr-62">
          <mxGeometry y="60" width="400" height="390" as="geometry" />
        </mxCell>
        <mxCell id="6ESlSrMBdeSqssrMb8Sr-70" value="много строк" style="shape=partialRectangle;html=1;whiteSpace=wrap;connectable=0;fillColor=none;top=0;left=0;bottom=0;right=0;overflow=hidden;" vertex="1" parent="6ESlSrMBdeSqssrMb8Sr-69">
          <mxGeometry width="200" height="390" as="geometry">
            <mxRectangle width="200" height="390" as="alternateBounds" />
          </mxGeometry>
        </mxCell>
        <mxCell id="6ESlSrMBdeSqssrMb8Sr-71" value="пусто еще ничего не привязано" style="shape=partialRectangle;html=1;whiteSpace=wrap;connectable=0;fillColor=none;top=0;left=0;bottom=0;right=0;overflow=hidden;" vertex="1" parent="6ESlSrMBdeSqssrMb8Sr-69">
          <mxGeometry x="200" width="200" height="390" as="geometry">
            <mxRectangle width="200" height="390" as="alternateBounds" />
          </mxGeometry>
        </mxCell>
        <mxCell id="6ESlSrMBdeSqssrMb8Sr-72" value="Стандартизированные товары по алфавиту" style="text;html=1;strokeColor=none;fillColor=none;align=center;verticalAlign=middle;whiteSpace=wrap;rounded=0;" vertex="1" parent="1">
          <mxGeometry x="500" y="50" width="280" height="30" as="geometry" />
        </mxCell>
        <mxCell id="6ESlSrMBdeSqssrMb8Sr-73" value="Стандартизированные товары по похожести на выделенную в моменте строку слева" style="text;html=1;strokeColor=none;fillColor=none;align=center;verticalAlign=middle;whiteSpace=wrap;rounded=0;" vertex="1" parent="1">
          <mxGeometry x="495" y="300" width="280" height="30" as="geometry" />
        </mxCell>
      </root>
    </mxGraphModel>
  </diagram>
</mxfile>
